<mxfile host="app.diagrams.net" modified="2023-03-23T20:21:32.407Z" agent="Mozilla/5.0 (Windows NT 10.0; Win64; x64) AppleWebKit/537.36 (KHTML, like Gecko) Chrome/110.0.0.0 Safari/537.36 OPR/96.0.0.0 (Edition std-1)" etag="iEVt4WE7pRXsiA1awhcM" version="21.1.0" type="device">
  <diagram name="Página-1" id="4TpOOCcWUKldZOAmbPnH">
    <mxGraphModel dx="1441" dy="786" grid="1" gridSize="10" guides="1" tooltips="1" connect="1" arrows="1" fold="1" page="1" pageScale="1" pageWidth="1169" pageHeight="827" math="0" shadow="0">
      <root>
        <mxCell id="0" />
        <mxCell id="1" parent="0" />
        <mxCell id="gu1ey1fdX_Dlsy2KoiUC-1" value="peças" style="rounded=1;whiteSpace=wrap;html=1;" vertex="1" parent="1">
          <mxGeometry x="210" y="260" width="130" height="160" as="geometry" />
        </mxCell>
        <mxCell id="gu1ey1fdX_Dlsy2KoiUC-6" style="edgeStyle=orthogonalEdgeStyle;rounded=0;orthogonalLoop=1;jettySize=auto;html=1;exitX=1;exitY=0.5;exitDx=0;exitDy=0;entryX=0;entryY=0.25;entryDx=0;entryDy=0;startArrow=none;startFill=0;endArrow=none;endFill=0;" edge="1" parent="1" source="gu1ey1fdX_Dlsy2KoiUC-2" target="gu1ey1fdX_Dlsy2KoiUC-1">
          <mxGeometry relative="1" as="geometry" />
        </mxCell>
        <mxCell id="gu1ey1fdX_Dlsy2KoiUC-2" value="" style="ellipse;whiteSpace=wrap;html=1;aspect=fixed;fillColor=#0000FF;" vertex="1" parent="1">
          <mxGeometry x="120" y="290" width="20" height="20" as="geometry" />
        </mxCell>
        <mxCell id="gu1ey1fdX_Dlsy2KoiUC-7" style="edgeStyle=orthogonalEdgeStyle;rounded=0;orthogonalLoop=1;jettySize=auto;html=1;exitX=1;exitY=0.5;exitDx=0;exitDy=0;entryX=-0.006;entryY=0.437;entryDx=0;entryDy=0;entryPerimeter=0;endArrow=none;endFill=0;" edge="1" parent="1" source="gu1ey1fdX_Dlsy2KoiUC-3" target="gu1ey1fdX_Dlsy2KoiUC-1">
          <mxGeometry relative="1" as="geometry" />
        </mxCell>
        <mxCell id="gu1ey1fdX_Dlsy2KoiUC-3" value="" style="ellipse;whiteSpace=wrap;html=1;aspect=fixed;" vertex="1" parent="1">
          <mxGeometry x="120" y="320" width="20" height="20" as="geometry" />
        </mxCell>
        <mxCell id="gu1ey1fdX_Dlsy2KoiUC-8" style="edgeStyle=orthogonalEdgeStyle;rounded=0;orthogonalLoop=1;jettySize=auto;html=1;exitX=1;exitY=0.5;exitDx=0;exitDy=0;entryX=0;entryY=0.625;entryDx=0;entryDy=0;entryPerimeter=0;endArrow=none;endFill=0;" edge="1" parent="1" source="gu1ey1fdX_Dlsy2KoiUC-4" target="gu1ey1fdX_Dlsy2KoiUC-1">
          <mxGeometry relative="1" as="geometry" />
        </mxCell>
        <mxCell id="gu1ey1fdX_Dlsy2KoiUC-4" value="" style="ellipse;whiteSpace=wrap;html=1;aspect=fixed;" vertex="1" parent="1">
          <mxGeometry x="120" y="350" width="20" height="20" as="geometry" />
        </mxCell>
        <mxCell id="gu1ey1fdX_Dlsy2KoiUC-9" style="edgeStyle=orthogonalEdgeStyle;rounded=0;orthogonalLoop=1;jettySize=auto;html=1;exitX=1;exitY=0.5;exitDx=0;exitDy=0;entryX=0.012;entryY=0.817;entryDx=0;entryDy=0;entryPerimeter=0;endArrow=none;endFill=0;" edge="1" parent="1" source="gu1ey1fdX_Dlsy2KoiUC-5" target="gu1ey1fdX_Dlsy2KoiUC-1">
          <mxGeometry relative="1" as="geometry" />
        </mxCell>
        <mxCell id="gu1ey1fdX_Dlsy2KoiUC-5" value="" style="ellipse;whiteSpace=wrap;html=1;aspect=fixed;" vertex="1" parent="1">
          <mxGeometry x="120" y="380" width="20" height="20" as="geometry" />
        </mxCell>
        <mxCell id="gu1ey1fdX_Dlsy2KoiUC-10" value="id" style="text;html=1;strokeColor=none;fillColor=none;align=center;verticalAlign=middle;whiteSpace=wrap;rounded=0;" vertex="1" parent="1">
          <mxGeometry x="155" y="280" width="40" height="20" as="geometry" />
        </mxCell>
        <mxCell id="gu1ey1fdX_Dlsy2KoiUC-13" value="numero" style="text;html=1;strokeColor=none;fillColor=none;align=center;verticalAlign=middle;whiteSpace=wrap;rounded=0;" vertex="1" parent="1">
          <mxGeometry x="150" y="310" width="50" height="25" as="geometry" />
        </mxCell>
        <mxCell id="gu1ey1fdX_Dlsy2KoiUC-14" value="peso" style="text;html=1;strokeColor=none;fillColor=none;align=center;verticalAlign=middle;whiteSpace=wrap;rounded=0;" vertex="1" parent="1">
          <mxGeometry x="162.5" y="340" width="30" height="20" as="geometry" />
        </mxCell>
        <mxCell id="gu1ey1fdX_Dlsy2KoiUC-15" value="cor" style="text;html=1;strokeColor=none;fillColor=none;align=center;verticalAlign=middle;whiteSpace=wrap;rounded=0;" vertex="1" parent="1">
          <mxGeometry x="162.5" y="370" width="30" height="20" as="geometry" />
        </mxCell>
        <mxCell id="gu1ey1fdX_Dlsy2KoiUC-60" style="edgeStyle=orthogonalEdgeStyle;rounded=0;orthogonalLoop=1;jettySize=auto;html=1;entryX=1;entryY=0.5;entryDx=0;entryDy=0;endArrow=none;endFill=0;" edge="1" parent="1" source="gu1ey1fdX_Dlsy2KoiUC-16" target="gu1ey1fdX_Dlsy2KoiUC-59">
          <mxGeometry relative="1" as="geometry" />
        </mxCell>
        <mxCell id="gu1ey1fdX_Dlsy2KoiUC-16" value="deposito" style="rounded=1;whiteSpace=wrap;html=1;" vertex="1" parent="1">
          <mxGeometry x="590" y="265" width="140" height="165" as="geometry" />
        </mxCell>
        <mxCell id="gu1ey1fdX_Dlsy2KoiUC-40" style="edgeStyle=orthogonalEdgeStyle;rounded=0;orthogonalLoop=1;jettySize=auto;html=1;exitX=0;exitY=0.5;exitDx=0;exitDy=0;entryX=1.006;entryY=0.21;entryDx=0;entryDy=0;entryPerimeter=0;endArrow=none;endFill=0;" edge="1" parent="1" source="gu1ey1fdX_Dlsy2KoiUC-36" target="gu1ey1fdX_Dlsy2KoiUC-16">
          <mxGeometry relative="1" as="geometry" />
        </mxCell>
        <mxCell id="gu1ey1fdX_Dlsy2KoiUC-36" value="" style="ellipse;whiteSpace=wrap;html=1;aspect=fixed;fillColor=#3333FF;" vertex="1" parent="1">
          <mxGeometry x="830" y="290" width="20" height="20" as="geometry" />
        </mxCell>
        <mxCell id="gu1ey1fdX_Dlsy2KoiUC-47" style="edgeStyle=orthogonalEdgeStyle;rounded=0;orthogonalLoop=1;jettySize=auto;html=1;entryX=1;entryY=0.5;entryDx=0;entryDy=0;endArrow=none;endFill=0;" edge="1" parent="1" source="gu1ey1fdX_Dlsy2KoiUC-37" target="gu1ey1fdX_Dlsy2KoiUC-16">
          <mxGeometry relative="1" as="geometry" />
        </mxCell>
        <mxCell id="gu1ey1fdX_Dlsy2KoiUC-37" value="" style="ellipse;whiteSpace=wrap;html=1;aspect=fixed;" vertex="1" parent="1">
          <mxGeometry x="830" y="337.5" width="20" height="20" as="geometry" />
        </mxCell>
        <mxCell id="gu1ey1fdX_Dlsy2KoiUC-55" style="edgeStyle=orthogonalEdgeStyle;rounded=0;orthogonalLoop=1;jettySize=auto;html=1;exitX=0;exitY=0.5;exitDx=0;exitDy=0;entryX=1.023;entryY=0.821;entryDx=0;entryDy=0;entryPerimeter=0;endArrow=none;endFill=0;" edge="1" parent="1" source="gu1ey1fdX_Dlsy2KoiUC-38" target="gu1ey1fdX_Dlsy2KoiUC-16">
          <mxGeometry relative="1" as="geometry" />
        </mxCell>
        <mxCell id="gu1ey1fdX_Dlsy2KoiUC-38" value="" style="ellipse;whiteSpace=wrap;html=1;aspect=fixed;" vertex="1" parent="1">
          <mxGeometry x="830" y="390" width="20" height="20" as="geometry" />
        </mxCell>
        <mxCell id="gu1ey1fdX_Dlsy2KoiUC-46" value="id" style="text;html=1;strokeColor=none;fillColor=none;align=center;verticalAlign=middle;whiteSpace=wrap;rounded=0;" vertex="1" parent="1">
          <mxGeometry x="770" y="282.5" width="30" height="15" as="geometry" />
        </mxCell>
        <mxCell id="gu1ey1fdX_Dlsy2KoiUC-54" value="numero" style="text;html=1;strokeColor=none;fillColor=none;align=center;verticalAlign=middle;whiteSpace=wrap;rounded=0;" vertex="1" parent="1">
          <mxGeometry x="760" y="330" width="42.5" height="17.5" as="geometry" />
        </mxCell>
        <mxCell id="gu1ey1fdX_Dlsy2KoiUC-58" value="endereco" style="text;html=1;strokeColor=none;fillColor=none;align=center;verticalAlign=middle;whiteSpace=wrap;rounded=0;fontSize=11;" vertex="1" parent="1">
          <mxGeometry x="772.5" y="380" width="30" height="20" as="geometry" />
        </mxCell>
        <mxCell id="gu1ey1fdX_Dlsy2KoiUC-61" style="edgeStyle=orthogonalEdgeStyle;rounded=0;orthogonalLoop=1;jettySize=auto;html=1;entryX=1.015;entryY=0.552;entryDx=0;entryDy=0;entryPerimeter=0;endArrow=none;endFill=0;" edge="1" parent="1" source="gu1ey1fdX_Dlsy2KoiUC-59" target="gu1ey1fdX_Dlsy2KoiUC-1">
          <mxGeometry relative="1" as="geometry" />
        </mxCell>
        <mxCell id="gu1ey1fdX_Dlsy2KoiUC-59" value="pode ter" style="rhombus;whiteSpace=wrap;html=1;" vertex="1" parent="1">
          <mxGeometry x="420" y="313.5" width="80" height="68" as="geometry" />
        </mxCell>
        <mxCell id="gu1ey1fdX_Dlsy2KoiUC-62" value="1" style="text;html=1;strokeColor=none;fillColor=none;align=center;verticalAlign=middle;whiteSpace=wrap;rounded=0;" vertex="1" parent="1">
          <mxGeometry x="570" y="323" width="20" height="24" as="geometry" />
        </mxCell>
        <mxCell id="gu1ey1fdX_Dlsy2KoiUC-63" value="1,N" style="text;html=1;strokeColor=none;fillColor=none;align=center;verticalAlign=middle;whiteSpace=wrap;rounded=0;" vertex="1" parent="1">
          <mxGeometry x="340" y="333" width="30" height="14" as="geometry" />
        </mxCell>
        <mxCell id="gu1ey1fdX_Dlsy2KoiUC-90" style="edgeStyle=orthogonalEdgeStyle;rounded=0;orthogonalLoop=1;jettySize=auto;html=1;entryX=0.5;entryY=1;entryDx=0;entryDy=0;endArrow=none;endFill=0;" edge="1" parent="1" source="gu1ey1fdX_Dlsy2KoiUC-64" target="gu1ey1fdX_Dlsy2KoiUC-81">
          <mxGeometry relative="1" as="geometry" />
        </mxCell>
        <mxCell id="gu1ey1fdX_Dlsy2KoiUC-104" style="edgeStyle=orthogonalEdgeStyle;rounded=0;orthogonalLoop=1;jettySize=auto;html=1;exitX=1;exitY=0.5;exitDx=0;exitDy=0;entryX=0;entryY=0.5;entryDx=0;entryDy=0;endArrow=none;endFill=0;" edge="1" parent="1" source="gu1ey1fdX_Dlsy2KoiUC-64" target="gu1ey1fdX_Dlsy2KoiUC-103">
          <mxGeometry relative="1" as="geometry" />
        </mxCell>
        <mxCell id="gu1ey1fdX_Dlsy2KoiUC-64" value="fornecedor" style="rounded=1;whiteSpace=wrap;html=1;" vertex="1" parent="1">
          <mxGeometry x="212.5" y="597.5" width="125" height="160" as="geometry" />
        </mxCell>
        <mxCell id="gu1ey1fdX_Dlsy2KoiUC-77" style="edgeStyle=orthogonalEdgeStyle;rounded=0;orthogonalLoop=1;jettySize=auto;html=1;exitX=1;exitY=0.5;exitDx=0;exitDy=0;entryX=0.011;entryY=0.19;entryDx=0;entryDy=0;entryPerimeter=0;endArrow=none;endFill=0;" edge="1" parent="1" source="gu1ey1fdX_Dlsy2KoiUC-71" target="gu1ey1fdX_Dlsy2KoiUC-64">
          <mxGeometry relative="1" as="geometry" />
        </mxCell>
        <mxCell id="gu1ey1fdX_Dlsy2KoiUC-71" value="" style="ellipse;whiteSpace=wrap;html=1;aspect=fixed;fillColor=#3333FF;" vertex="1" parent="1">
          <mxGeometry x="105" y="617.5" width="20" height="20" as="geometry" />
        </mxCell>
        <mxCell id="gu1ey1fdX_Dlsy2KoiUC-78" style="edgeStyle=orthogonalEdgeStyle;rounded=0;orthogonalLoop=1;jettySize=auto;html=1;entryX=0;entryY=0.5;entryDx=0;entryDy=0;endArrow=none;endFill=0;" edge="1" parent="1" source="gu1ey1fdX_Dlsy2KoiUC-72" target="gu1ey1fdX_Dlsy2KoiUC-64">
          <mxGeometry relative="1" as="geometry">
            <mxPoint x="115.5" y="678" as="sourcePoint" />
          </mxGeometry>
        </mxCell>
        <mxCell id="gu1ey1fdX_Dlsy2KoiUC-80" style="edgeStyle=orthogonalEdgeStyle;rounded=0;orthogonalLoop=1;jettySize=auto;html=1;exitX=1;exitY=0.5;exitDx=0;exitDy=0;entryX=-0.002;entryY=0.815;entryDx=0;entryDy=0;entryPerimeter=0;endArrow=none;endFill=0;" edge="1" parent="1" source="gu1ey1fdX_Dlsy2KoiUC-73" target="gu1ey1fdX_Dlsy2KoiUC-64">
          <mxGeometry relative="1" as="geometry" />
        </mxCell>
        <mxCell id="gu1ey1fdX_Dlsy2KoiUC-73" value="" style="ellipse;whiteSpace=wrap;html=1;aspect=fixed;" vertex="1" parent="1">
          <mxGeometry x="105" y="717.5" width="20" height="20" as="geometry" />
        </mxCell>
        <mxCell id="gu1ey1fdX_Dlsy2KoiUC-74" value="id" style="text;html=1;strokeColor=none;fillColor=none;align=center;verticalAlign=middle;whiteSpace=wrap;rounded=0;" vertex="1" parent="1">
          <mxGeometry x="156.25" y="613" width="30" height="15" as="geometry" />
        </mxCell>
        <mxCell id="gu1ey1fdX_Dlsy2KoiUC-75" value="numero" style="text;html=1;strokeColor=none;fillColor=none;align=center;verticalAlign=middle;whiteSpace=wrap;rounded=0;" vertex="1" parent="1">
          <mxGeometry x="150" y="660" width="42.5" height="17.5" as="geometry" />
        </mxCell>
        <mxCell id="gu1ey1fdX_Dlsy2KoiUC-76" value="endereco" style="text;html=1;strokeColor=none;fillColor=none;align=center;verticalAlign=middle;whiteSpace=wrap;rounded=0;fontSize=11;" vertex="1" parent="1">
          <mxGeometry x="156.25" y="707.5" width="30" height="20" as="geometry" />
        </mxCell>
        <mxCell id="gu1ey1fdX_Dlsy2KoiUC-72" value="" style="ellipse;whiteSpace=wrap;html=1;aspect=fixed;" vertex="1" parent="1">
          <mxGeometry x="105" y="667.5" width="20" height="20" as="geometry" />
        </mxCell>
        <mxCell id="gu1ey1fdX_Dlsy2KoiUC-89" style="edgeStyle=orthogonalEdgeStyle;rounded=0;orthogonalLoop=1;jettySize=auto;html=1;entryX=0.5;entryY=1;entryDx=0;entryDy=0;endArrow=none;endFill=0;" edge="1" parent="1" source="gu1ey1fdX_Dlsy2KoiUC-81" target="gu1ey1fdX_Dlsy2KoiUC-1">
          <mxGeometry relative="1" as="geometry" />
        </mxCell>
        <mxCell id="gu1ey1fdX_Dlsy2KoiUC-81" value="pode fornecer" style="rhombus;whiteSpace=wrap;html=1;" vertex="1" parent="1">
          <mxGeometry x="235" y="470" width="80" height="80" as="geometry" />
        </mxCell>
        <mxCell id="gu1ey1fdX_Dlsy2KoiUC-91" value="1,n" style="text;html=1;strokeColor=none;fillColor=none;align=center;verticalAlign=middle;whiteSpace=wrap;rounded=0;" vertex="1" parent="1">
          <mxGeometry x="232.5" y="570" width="60" height="30" as="geometry" />
        </mxCell>
        <mxCell id="gu1ey1fdX_Dlsy2KoiUC-92" value="1,n" style="text;html=1;strokeColor=none;fillColor=none;align=center;verticalAlign=middle;whiteSpace=wrap;rounded=0;" vertex="1" parent="1">
          <mxGeometry x="232.5" y="414" width="60" height="30" as="geometry" />
        </mxCell>
        <mxCell id="gu1ey1fdX_Dlsy2KoiUC-93" value="projeto" style="rounded=1;whiteSpace=wrap;html=1;" vertex="1" parent="1">
          <mxGeometry x="590" y="595" width="140" height="165" as="geometry" />
        </mxCell>
        <mxCell id="gu1ey1fdX_Dlsy2KoiUC-94" style="edgeStyle=orthogonalEdgeStyle;rounded=0;orthogonalLoop=1;jettySize=auto;html=1;exitX=0;exitY=0.5;exitDx=0;exitDy=0;entryX=1.006;entryY=0.21;entryDx=0;entryDy=0;entryPerimeter=0;endArrow=none;endFill=0;" edge="1" parent="1" source="gu1ey1fdX_Dlsy2KoiUC-95" target="gu1ey1fdX_Dlsy2KoiUC-93">
          <mxGeometry relative="1" as="geometry" />
        </mxCell>
        <mxCell id="gu1ey1fdX_Dlsy2KoiUC-95" value="" style="ellipse;whiteSpace=wrap;html=1;aspect=fixed;fillColor=#3333FF;" vertex="1" parent="1">
          <mxGeometry x="830" y="620" width="20" height="20" as="geometry" />
        </mxCell>
        <mxCell id="gu1ey1fdX_Dlsy2KoiUC-96" style="edgeStyle=orthogonalEdgeStyle;rounded=0;orthogonalLoop=1;jettySize=auto;html=1;entryX=1;entryY=0.5;entryDx=0;entryDy=0;endArrow=none;endFill=0;" edge="1" parent="1" source="gu1ey1fdX_Dlsy2KoiUC-97" target="gu1ey1fdX_Dlsy2KoiUC-93">
          <mxGeometry relative="1" as="geometry" />
        </mxCell>
        <mxCell id="gu1ey1fdX_Dlsy2KoiUC-97" value="" style="ellipse;whiteSpace=wrap;html=1;aspect=fixed;" vertex="1" parent="1">
          <mxGeometry x="830" y="667.5" width="20" height="20" as="geometry" />
        </mxCell>
        <mxCell id="gu1ey1fdX_Dlsy2KoiUC-98" style="edgeStyle=orthogonalEdgeStyle;rounded=0;orthogonalLoop=1;jettySize=auto;html=1;exitX=0;exitY=0.5;exitDx=0;exitDy=0;entryX=1.023;entryY=0.821;entryDx=0;entryDy=0;entryPerimeter=0;endArrow=none;endFill=0;" edge="1" parent="1" source="gu1ey1fdX_Dlsy2KoiUC-99" target="gu1ey1fdX_Dlsy2KoiUC-93">
          <mxGeometry relative="1" as="geometry" />
        </mxCell>
        <mxCell id="gu1ey1fdX_Dlsy2KoiUC-99" value="" style="ellipse;whiteSpace=wrap;html=1;aspect=fixed;" vertex="1" parent="1">
          <mxGeometry x="830" y="720" width="20" height="20" as="geometry" />
        </mxCell>
        <mxCell id="gu1ey1fdX_Dlsy2KoiUC-100" value="id" style="text;html=1;strokeColor=none;fillColor=none;align=center;verticalAlign=middle;whiteSpace=wrap;rounded=0;" vertex="1" parent="1">
          <mxGeometry x="770" y="612.5" width="30" height="15" as="geometry" />
        </mxCell>
        <mxCell id="gu1ey1fdX_Dlsy2KoiUC-101" value="numero" style="text;html=1;strokeColor=none;fillColor=none;align=center;verticalAlign=middle;whiteSpace=wrap;rounded=0;" vertex="1" parent="1">
          <mxGeometry x="760" y="660" width="42.5" height="17.5" as="geometry" />
        </mxCell>
        <mxCell id="gu1ey1fdX_Dlsy2KoiUC-102" value="orcamento" style="text;html=1;strokeColor=none;fillColor=none;align=center;verticalAlign=middle;whiteSpace=wrap;rounded=0;fontSize=11;" vertex="1" parent="1">
          <mxGeometry x="772.5" y="710" width="30" height="20" as="geometry" />
        </mxCell>
        <mxCell id="gu1ey1fdX_Dlsy2KoiUC-105" style="edgeStyle=orthogonalEdgeStyle;rounded=0;orthogonalLoop=1;jettySize=auto;html=1;exitX=1;exitY=0.5;exitDx=0;exitDy=0;entryX=0;entryY=0.5;entryDx=0;entryDy=0;" edge="1" parent="1" source="gu1ey1fdX_Dlsy2KoiUC-103" target="gu1ey1fdX_Dlsy2KoiUC-93">
          <mxGeometry relative="1" as="geometry" />
        </mxCell>
        <mxCell id="gu1ey1fdX_Dlsy2KoiUC-103" value="pode atender" style="rhombus;whiteSpace=wrap;html=1;" vertex="1" parent="1">
          <mxGeometry x="420" y="637.5" width="80" height="80" as="geometry" />
        </mxCell>
        <mxCell id="gu1ey1fdX_Dlsy2KoiUC-106" value="n" style="text;html=1;strokeColor=none;fillColor=none;align=center;verticalAlign=middle;whiteSpace=wrap;rounded=0;" vertex="1" parent="1">
          <mxGeometry x="325" y="654" width="60" height="30" as="geometry" />
        </mxCell>
        <mxCell id="gu1ey1fdX_Dlsy2KoiUC-107" value="n" style="text;html=1;strokeColor=none;fillColor=none;align=center;verticalAlign=middle;whiteSpace=wrap;rounded=0;" vertex="1" parent="1">
          <mxGeometry x="540" y="648" width="60" height="30" as="geometry" />
        </mxCell>
        <mxCell id="gu1ey1fdX_Dlsy2KoiUC-109" value="" style="endArrow=none;html=1;rounded=0;exitX=0;exitY=0;exitDx=0;exitDy=0;entryX=1;entryY=1;entryDx=0;entryDy=0;" edge="1" parent="1" source="gu1ey1fdX_Dlsy2KoiUC-93" target="gu1ey1fdX_Dlsy2KoiUC-1">
          <mxGeometry width="50" height="50" relative="1" as="geometry">
            <mxPoint x="460" y="510" as="sourcePoint" />
            <mxPoint x="510" y="460" as="targetPoint" />
          </mxGeometry>
        </mxCell>
        <mxCell id="gu1ey1fdX_Dlsy2KoiUC-110" value="pode utilizar" style="rhombus;whiteSpace=wrap;html=1;rotation=33;" vertex="1" parent="1">
          <mxGeometry x="437.06" y="479.36" width="70" height="72.87" as="geometry" />
        </mxCell>
        <mxCell id="gu1ey1fdX_Dlsy2KoiUC-111" value="n" style="text;html=1;strokeColor=none;fillColor=none;align=center;verticalAlign=middle;whiteSpace=wrap;rounded=0;" vertex="1" parent="1">
          <mxGeometry x="325" y="399" width="60" height="30" as="geometry" />
        </mxCell>
        <mxCell id="gu1ey1fdX_Dlsy2KoiUC-112" value="n" style="text;html=1;strokeColor=none;fillColor=none;align=center;verticalAlign=middle;whiteSpace=wrap;rounded=0;" vertex="1" parent="1">
          <mxGeometry x="570" y="565" width="60" height="30" as="geometry" />
        </mxCell>
        <mxCell id="gu1ey1fdX_Dlsy2KoiUC-135" style="edgeStyle=orthogonalEdgeStyle;rounded=0;orthogonalLoop=1;jettySize=auto;html=1;exitX=0;exitY=1;exitDx=0;exitDy=0;entryX=0.5;entryY=1;entryDx=0;entryDy=0;endArrow=none;endFill=0;" edge="1" parent="1" source="gu1ey1fdX_Dlsy2KoiUC-122" target="gu1ey1fdX_Dlsy2KoiUC-93">
          <mxGeometry relative="1" as="geometry" />
        </mxCell>
        <mxCell id="gu1ey1fdX_Dlsy2KoiUC-148" style="edgeStyle=orthogonalEdgeStyle;rounded=0;orthogonalLoop=1;jettySize=auto;html=1;exitX=0.5;exitY=0;exitDx=0;exitDy=0;entryX=0.5;entryY=1;entryDx=0;entryDy=0;endArrow=none;endFill=0;" edge="1" parent="1" source="gu1ey1fdX_Dlsy2KoiUC-122" target="gu1ey1fdX_Dlsy2KoiUC-138">
          <mxGeometry relative="1" as="geometry" />
        </mxCell>
        <mxCell id="gu1ey1fdX_Dlsy2KoiUC-122" value="funcionario" style="rounded=1;whiteSpace=wrap;html=1;" vertex="1" parent="1">
          <mxGeometry x="1000" y="600" width="140" height="165" as="geometry" />
        </mxCell>
        <mxCell id="gu1ey1fdX_Dlsy2KoiUC-123" style="edgeStyle=orthogonalEdgeStyle;rounded=0;orthogonalLoop=1;jettySize=auto;html=1;exitX=0;exitY=0.5;exitDx=0;exitDy=0;entryX=1.006;entryY=0.21;entryDx=0;entryDy=0;entryPerimeter=0;endArrow=none;endFill=0;" edge="1" parent="1" source="gu1ey1fdX_Dlsy2KoiUC-124" target="gu1ey1fdX_Dlsy2KoiUC-122">
          <mxGeometry relative="1" as="geometry" />
        </mxCell>
        <mxCell id="gu1ey1fdX_Dlsy2KoiUC-124" value="" style="ellipse;whiteSpace=wrap;html=1;aspect=fixed;fillColor=#3333FF;" vertex="1" parent="1">
          <mxGeometry x="1240" y="625" width="20" height="20" as="geometry" />
        </mxCell>
        <mxCell id="gu1ey1fdX_Dlsy2KoiUC-125" style="edgeStyle=orthogonalEdgeStyle;rounded=0;orthogonalLoop=1;jettySize=auto;html=1;entryX=1;entryY=0.5;entryDx=0;entryDy=0;endArrow=none;endFill=0;" edge="1" parent="1" source="gu1ey1fdX_Dlsy2KoiUC-126">
          <mxGeometry relative="1" as="geometry">
            <mxPoint x="1140" y="670.5" as="targetPoint" />
          </mxGeometry>
        </mxCell>
        <mxCell id="gu1ey1fdX_Dlsy2KoiUC-126" value="" style="ellipse;whiteSpace=wrap;html=1;aspect=fixed;" vertex="1" parent="1">
          <mxGeometry x="1240" y="660.5" width="20" height="20" as="geometry" />
        </mxCell>
        <mxCell id="gu1ey1fdX_Dlsy2KoiUC-127" style="edgeStyle=orthogonalEdgeStyle;rounded=0;orthogonalLoop=1;jettySize=auto;html=1;exitX=0;exitY=0.5;exitDx=0;exitDy=0;entryX=1.023;entryY=0.821;entryDx=0;entryDy=0;entryPerimeter=0;endArrow=none;endFill=0;" edge="1" parent="1" source="gu1ey1fdX_Dlsy2KoiUC-128">
          <mxGeometry relative="1" as="geometry">
            <mxPoint x="1139.9999999999998" y="732.9649999999999" as="targetPoint" />
          </mxGeometry>
        </mxCell>
        <mxCell id="gu1ey1fdX_Dlsy2KoiUC-128" value="" style="ellipse;whiteSpace=wrap;html=1;aspect=fixed;" vertex="1" parent="1">
          <mxGeometry x="1236.78" y="722.5" width="20" height="20" as="geometry" />
        </mxCell>
        <mxCell id="gu1ey1fdX_Dlsy2KoiUC-129" value="id" style="text;html=1;strokeColor=none;fillColor=none;align=center;verticalAlign=middle;whiteSpace=wrap;rounded=0;" vertex="1" parent="1">
          <mxGeometry x="1180" y="617.5" width="30" height="15" as="geometry" />
        </mxCell>
        <mxCell id="gu1ey1fdX_Dlsy2KoiUC-130" value="numero" style="text;html=1;strokeColor=none;fillColor=none;align=center;verticalAlign=middle;whiteSpace=wrap;rounded=0;" vertex="1" parent="1">
          <mxGeometry x="1170" y="653" width="42.5" height="17.5" as="geometry" />
        </mxCell>
        <mxCell id="gu1ey1fdX_Dlsy2KoiUC-131" value="telefone" style="text;html=1;strokeColor=none;fillColor=none;align=center;verticalAlign=middle;whiteSpace=wrap;rounded=0;fontSize=11;" vertex="1" parent="1">
          <mxGeometry x="1179.28" y="712.5" width="30" height="20" as="geometry" />
        </mxCell>
        <mxCell id="gu1ey1fdX_Dlsy2KoiUC-132" style="edgeStyle=orthogonalEdgeStyle;rounded=0;orthogonalLoop=1;jettySize=auto;html=1;entryX=1;entryY=0.5;entryDx=0;entryDy=0;endArrow=none;endFill=0;" edge="1" parent="1" source="gu1ey1fdX_Dlsy2KoiUC-133">
          <mxGeometry relative="1" as="geometry">
            <mxPoint x="1140" y="700" as="targetPoint" />
          </mxGeometry>
        </mxCell>
        <mxCell id="gu1ey1fdX_Dlsy2KoiUC-133" value="" style="ellipse;whiteSpace=wrap;html=1;aspect=fixed;" vertex="1" parent="1">
          <mxGeometry x="1240" y="690" width="20" height="20" as="geometry" />
        </mxCell>
        <mxCell id="gu1ey1fdX_Dlsy2KoiUC-134" value="salario" style="text;html=1;strokeColor=none;fillColor=none;align=center;verticalAlign=middle;whiteSpace=wrap;rounded=0;" vertex="1" parent="1">
          <mxGeometry x="1170" y="682.5" width="42.5" height="17.5" as="geometry" />
        </mxCell>
        <mxCell id="gu1ey1fdX_Dlsy2KoiUC-136" value="1" style="text;html=1;strokeColor=none;fillColor=none;align=center;verticalAlign=middle;whiteSpace=wrap;rounded=0;" vertex="1" parent="1">
          <mxGeometry x="980" y="760" width="60" height="30" as="geometry" />
        </mxCell>
        <mxCell id="gu1ey1fdX_Dlsy2KoiUC-137" value="n" style="text;html=1;strokeColor=none;fillColor=none;align=center;verticalAlign=middle;whiteSpace=wrap;rounded=0;" vertex="1" parent="1">
          <mxGeometry x="660" y="758" width="60" height="30" as="geometry" />
        </mxCell>
        <mxCell id="gu1ey1fdX_Dlsy2KoiUC-138" value="departamento" style="rounded=1;whiteSpace=wrap;html=1;" vertex="1" parent="1">
          <mxGeometry x="1000" y="264" width="140" height="165" as="geometry" />
        </mxCell>
        <mxCell id="gu1ey1fdX_Dlsy2KoiUC-139" style="edgeStyle=orthogonalEdgeStyle;rounded=0;orthogonalLoop=1;jettySize=auto;html=1;exitX=0;exitY=0.5;exitDx=0;exitDy=0;entryX=1.006;entryY=0.21;entryDx=0;entryDy=0;entryPerimeter=0;endArrow=none;endFill=0;" edge="1" parent="1" source="gu1ey1fdX_Dlsy2KoiUC-140" target="gu1ey1fdX_Dlsy2KoiUC-138">
          <mxGeometry relative="1" as="geometry" />
        </mxCell>
        <mxCell id="gu1ey1fdX_Dlsy2KoiUC-140" value="" style="ellipse;whiteSpace=wrap;html=1;aspect=fixed;fillColor=#3333FF;" vertex="1" parent="1">
          <mxGeometry x="1240" y="289" width="20" height="20" as="geometry" />
        </mxCell>
        <mxCell id="gu1ey1fdX_Dlsy2KoiUC-141" style="edgeStyle=orthogonalEdgeStyle;rounded=0;orthogonalLoop=1;jettySize=auto;html=1;entryX=1;entryY=0.5;entryDx=0;entryDy=0;endArrow=none;endFill=0;" edge="1" parent="1" source="gu1ey1fdX_Dlsy2KoiUC-142" target="gu1ey1fdX_Dlsy2KoiUC-138">
          <mxGeometry relative="1" as="geometry" />
        </mxCell>
        <mxCell id="gu1ey1fdX_Dlsy2KoiUC-142" value="" style="ellipse;whiteSpace=wrap;html=1;aspect=fixed;" vertex="1" parent="1">
          <mxGeometry x="1240" y="336.5" width="20" height="20" as="geometry" />
        </mxCell>
        <mxCell id="gu1ey1fdX_Dlsy2KoiUC-143" style="edgeStyle=orthogonalEdgeStyle;rounded=0;orthogonalLoop=1;jettySize=auto;html=1;exitX=0;exitY=0.5;exitDx=0;exitDy=0;entryX=1.023;entryY=0.821;entryDx=0;entryDy=0;entryPerimeter=0;endArrow=none;endFill=0;" edge="1" parent="1" source="gu1ey1fdX_Dlsy2KoiUC-144" target="gu1ey1fdX_Dlsy2KoiUC-138">
          <mxGeometry relative="1" as="geometry" />
        </mxCell>
        <mxCell id="gu1ey1fdX_Dlsy2KoiUC-144" value="" style="ellipse;whiteSpace=wrap;html=1;aspect=fixed;" vertex="1" parent="1">
          <mxGeometry x="1240" y="389" width="20" height="20" as="geometry" />
        </mxCell>
        <mxCell id="gu1ey1fdX_Dlsy2KoiUC-145" value="id" style="text;html=1;strokeColor=none;fillColor=none;align=center;verticalAlign=middle;whiteSpace=wrap;rounded=0;" vertex="1" parent="1">
          <mxGeometry x="1180" y="281.5" width="30" height="15" as="geometry" />
        </mxCell>
        <mxCell id="gu1ey1fdX_Dlsy2KoiUC-146" value="numero" style="text;html=1;strokeColor=none;fillColor=none;align=center;verticalAlign=middle;whiteSpace=wrap;rounded=0;" vertex="1" parent="1">
          <mxGeometry x="1170" y="329" width="42.5" height="17.5" as="geometry" />
        </mxCell>
        <mxCell id="gu1ey1fdX_Dlsy2KoiUC-147" value="setor" style="text;html=1;strokeColor=none;fillColor=none;align=center;verticalAlign=middle;whiteSpace=wrap;rounded=0;fontSize=11;" vertex="1" parent="1">
          <mxGeometry x="1182.5" y="379" width="30" height="20" as="geometry" />
        </mxCell>
        <mxCell id="gu1ey1fdX_Dlsy2KoiUC-149" value="1" style="text;html=1;strokeColor=none;fillColor=none;align=center;verticalAlign=middle;whiteSpace=wrap;rounded=0;" vertex="1" parent="1">
          <mxGeometry x="1070" y="429" width="60" height="30" as="geometry" />
        </mxCell>
        <mxCell id="gu1ey1fdX_Dlsy2KoiUC-150" value="1" style="text;whiteSpace=wrap;html=1;" vertex="1" parent="1">
          <mxGeometry x="1100" y="570" width="40" height="40" as="geometry" />
        </mxCell>
      </root>
    </mxGraphModel>
  </diagram>
</mxfile>
